<!-- Generated by IcoMoon.io -->
<svg version="1.1" xmlns="http://www.w3.org/2000/svg" viewBox="0 0 32 32">
<path d="M18.56 1.28q0.8 0.020 1.36 0.56 0.54 0.56 0.56 1.36v26.88q-0.020 0.8-0.56 1.36-0.56 0.54-1.36 0.56h-15.36q-0.8-0.020-1.36-0.56-0.54-0.56-0.56-1.36v-26.88q0.020-0.8 0.56-1.36 0.56-0.54 1.36-0.56h15.36zM9.92 3.2q-0.4 0-0.68 0.28t-0.28 0.68 0.28 0.68 0.68 0.28h1.92q0.4 0 0.68-0.28t0.28-0.68-0.28-0.68-0.68-0.28h-1.92zM11.84 30.080q0.4 0 0.68-0.28t0.28-0.68-0.28-0.68-0.68-0.28h-1.92q-0.4 0-0.68 0.28t-0.28 0.68 0.28 0.68 0.68 0.28h1.92zM18.56 26.24v-19.2h-15.36v19.2h15.36zM27.72 9.4q3 3.16 3 7.24t-3 7.24q-0.4 0.36-0.9 0.36-0.52 0-0.9-0.38-0.4-0.4-0.4-0.88 0-0.5 0.4-0.9 2.24-2.36 2.24-5.44t-2.24-5.44q-0.4-0.4-0.4-0.9 0-0.48 0.4-0.88 0.38-0.38 0.9-0.38 0.5 0 0.9 0.36zM24.12 13q1.48 1.6 1.48 3.64t-1.48 3.64q-0.4 0.36-0.92 0.36t-0.9-0.38-0.38-0.9 0.36-0.92q0.76-0.76 0.76-1.8t-0.76-1.8q-0.36-0.38-0.36-0.92 0-0.52 0.38-0.9t0.9-0.38 0.92 0.36z"></path>
</svg>
