<svg xmlns="http://www.w3.org/2000/svg" viewBox="0 0 32 32"><path fill="#fff" d="M17.523 6.407q.037-.093.288-.094h.252v.616l.359.04c.198.022.598.082.891.134s.781.177 1.087.279.836.329 1.18.506.853.489 1.132.694.741.613 1.026.906.699.804.92 1.136.512.841.646 1.132.316.756.404 1.035.204.757.257 1.062.097.688.097.851v.297h.632l-.038.532-.576.037-.04.513c-.022.282-.098.752-.168 1.044s-.198.725-.283.962-.295.701-.465 1.031-.489.839-.709 1.131-.642.764-.939 1.048-.82.701-1.164.927-.874.517-1.178.649-.747.297-.984.367-.666.171-.954.224a6 6 0 0 1-.825.098h-.302l-.038.656h-.5l-.011-.625-.526-.044a10 10 0 0 1-1.276-.234 7.3 7.3 0 0 1-1.563-.592c-.447-.222-1.054-.586-1.349-.81s-.765-.647-1.043-.941-.667-.779-.863-1.077-.479-.804-.629-1.124c-.149-.32-.343-.827-.43-1.128s-.2-.8-.25-1.111a7 7 0 0 1-.092-.783v-.219l-.625.043V15h.608l.043-.479c.024-.264.087-.693.141-.953s.182-.713.285-1.005.309-.77.458-1.063.383-.698.521-.902.413-.556.611-.781.558-.586.8-.801.608-.505.815-.644.614-.375.906-.523.789-.357 1.104-.462.807-.234 1.094-.285.691-.111.899-.133l.378-.04-.025-.214a.9.9 0 0 1 .011-.308m-.367 1.071c-.103.012-.398.053-.656.091s-.736.153-1.063.257c-.327.103-.844.312-1.15.463s-.774.432-1.041.624-.69.551-.94.797-.617.667-.817.935-.503.769-.676 1.114-.383.856-.468 1.137-.198.761-.251 1.066-.096.664-.096.797v.242h1.669l.039-.453c.022-.249.092-.636.158-.859s.192-.586.282-.806.296-.614.458-.875c.164-.264.545-.726.86-1.041a6.5 6.5 0 0 1 1.096-.892c.292-.179.743-.407 1.003-.508s.71-.226 1-.28.627-.112.747-.129l.219-.031v-.844c0-.713-.015-.842-.094-.834l-.281.031zm.907.802v.84l.234.037c.129.02.403.065.609.1s.558.122.781.194.575.215.781.318.53.286.719.406.565.433.835.695.611.644.758.851.366.572.486.813.29.663.377.939.192.733.233 1.016l.075.514h1.611V14.8c0-.112-.042-.461-.093-.776s-.166-.804-.255-1.086-.259-.725-.377-.984-.375-.713-.571-1.007c-.196-.295-.582-.773-.858-1.062s-.71-.68-.965-.87-.721-.48-1.036-.646-.865-.397-1.224-.514c-.358-.117-.849-.242-1.089-.278s-.571-.081-.734-.1l-.297-.034v.84zm-1.46 1.447c-.236.051-.63.172-.877.27s-.616.277-.822.397-.568.383-.806.584-.584.562-.769.803-.46.691-.61 1c-.151.309-.329.787-.396 1.063s-.14.648-.162.828l-.04.328h1.692v-.216c0-.119.07-.435.155-.703s.261-.666.39-.885c.13-.219.433-.584.674-.813s.633-.518.876-.645c.241-.126.607-.273.813-.326s.473-.111.593-.129l.219-.033V9.625l-.25.005a4.6 4.6 0 0 0-.678.097zm1.46.741c0 .758.004.781.141.81l.503.1c.199.039.581.18.849.313.277.139.662.404.894.617.224.205.526.556.672.779s.334.606.419.85.171.584.191.754l.037.309h1.679l-.044-.359c-.024-.198-.111-.592-.192-.877s-.258-.735-.391-1-.374-.658-.535-.872-.466-.547-.679-.739-.583-.473-.824-.623-.648-.356-.906-.459-.686-.231-.951-.285a5 5 0 0 0-.672-.099h-.19v.78zm-.719 1.327c-.069.012-.252.053-.406.092s-.478.168-.718.287c-.288.143-.58.36-.859.64a3 3 0 0 0-.643.887 4.7 4.7 0 0 0-.303.866l-.082.402.474.031c.395.026.478.05.496.146a.8.8 0 0 1-.016.266c-.036.142-.065.151-.474.151h-.436v.176c0 .097.045.329.1.516s.188.508.297.715.382.56.607.787c.261.262.557.485.815.612.223.11.559.24.746.29s.397.091.466.092c.114.001.125-.041.125-.484v-.485h.5l.036.986.294-.035c.162-.019.491-.108.733-.198s.618-.298.838-.463.535-.48.7-.7.371-.588.456-.819.173-.555.195-.72l.04-.3h-1.043v-.5l.516-.018c.485-.017.516-.026.515-.156 0-.076-.042-.293-.092-.481s-.183-.525-.296-.747a3.7 3.7 0 0 0-.611-.813c-.223-.225-.575-.498-.781-.607s-.53-.239-.719-.291a7 7 0 0 0-.547-.129l-.203-.035v1.004l-.531-.038-.008-.456c-.004-.251-.018-.463-.031-.473s-.08-.007-.148.005zm-.146 1.719c-.114.038-.344.192-.511.342s-.366.404-.444.565c-.1.207-.141.403-.14.671.001.255.049.486.145.708.086.197.255.428.42.573.152.134.406.287.565.341s.405.098.548.098.387-.044.544-.097.402-.197.545-.32.334-.367.425-.543c.128-.248.165-.413.167-.728.001-.295-.036-.485-.137-.694-.076-.158-.24-.388-.363-.511s-.327-.274-.452-.335c-.137-.067-.402-.117-.666-.126-.241-.008-.531.016-.645.055zM10 15.789c0 .142.043.507.097.813s.195.85.316 1.211.333.867.472 1.125.383.652.542.875.509.635.777.914.733.683 1.033.896c.3.214.799.51 1.108.659s.781.342 1.049.43.731.203 1.031.255.672.095.826.096h.281l-.023-1.593-.56-.075c-.308-.041-.775-.147-1.037-.235s-.669-.257-.904-.375-.654-.386-.932-.596-.657-.555-.842-.769-.422-.515-.527-.67-.282-.464-.394-.688-.268-.591-.344-.816-.173-.619-.214-.875-.087-.55-.101-.653l-.027-.188h-1.625v.257zm2.918-.24-.8.018.041.295c.022.162.08.47.127.685s.171.609.274.877.326.697.495.954.5.66.735.895.637.565.892.733.676.393.936.502.726.249 1.036.313.634.117.72.117l.156.001-.026-1.656-.299-.044c-.164-.024-.493-.106-.729-.182s-.631-.27-.876-.43c-.245-.161-.562-.42-.705-.576s-.36-.435-.482-.62-.293-.525-.38-.757-.176-.577-.199-.767c-.022-.19-.058-.352-.079-.359s-.398-.006-.838.004zm9.672-.002-.816.019-.079.47c-.053.318-.171.654-.365 1.041a3.4 3.4 0 0 1-.699.983c-.227.227-.581.514-.788.639s-.555.288-.776.362a4.3 4.3 0 0 1-.703.17l-.302.036v1.684l.359-.045c.197-.025.57-.098.828-.163s.729-.246 1.046-.402.788-.452 1.046-.657.641-.588.849-.851c.209-.262.49-.697.625-.966s.314-.722.396-1.007.17-.707.195-.94.035-.416.022-.408-.39.022-.839.033zm1.315.391c-.024.223-.095.608-.158.855s-.201.654-.305.906c-.105.252-.326.669-.492.927s-.468.649-.672.869-.548.534-.765.698-.64.425-.941.581-.796.355-1.099.443-.744.178-.98.2l-.429.04v1.607h.287c.158 0 .564-.056.902-.125s.863-.212 1.166-.318.762-.307 1.02-.446.652-.382.875-.539.673-.554 1-.882.726-.796.888-1.039.423-.707.581-1.031.355-.813.438-1.088.195-.75.247-1.055.096-.657.096-.781v-.226H23.95l-.043.406z"/><path fill="#0080c7" d="M28.039 5.438c.026.052.137.234.246.406s.333.58.497.906.419.893.566 1.259.354.965.459 1.331.246.953.313 1.303.156.929.197 1.285c.047.407.063 1.15.043 2-.023.989-.067 1.554-.164 2.102-.073.413-.219 1.058-.323 1.436s-.332 1.066-.506 1.531-.476 1.169-.673 1.564-.517.976-.712 1.291-.557.835-.803 1.156-.788.923-1.203 1.336-1.078.993-1.474 1.288-.961.681-1.257.858-.859.474-1.25.66-1.039.451-1.44.589-1.047.321-1.438.407-1.089.22-1.553.296c-.681.113-1.103.141-2.188.144-.786.002-1.577-.029-1.906-.076-.309-.044-.885-.152-1.278-.24s-1.011-.258-1.372-.379-.905-.328-1.21-.46-.786-.367-1.071-.522-.768-.447-1.075-.648-.839-.593-1.183-.87-.963-.852-1.376-1.277-.996-1.099-1.295-1.498-.718-1.017-.932-1.375-.548-1.002-.744-1.432-.472-1.139-.614-1.575-.312-1.027-.378-1.312a25 25 0 0 1-.235-1.206c-.09-.539-.115-1.027-.115-2.263 0-.866-.018-1.555-.041-1.531s-.101.339-.174.7-.188 1.129-.256 1.707-.123 1.272-.123 1.543.056.972.124 1.557.184 1.339.256 1.675.23.935.349 1.33c.12.395.344 1.028.498 1.406s.437.982.629 1.342.503.894.692 1.188.558.814.82 1.157a17.6 17.6 0 0 0 2.57 2.609c.327.26.903.674 1.281.92s1.081.641 1.563.877 1.152.532 1.491.656c.339.125.968.323 1.397.441s1.165.273 1.634.344.993.158 1.165.193c.174.035.854.052 1.531.039.706-.014 1.521-.069 1.938-.132.395-.059 1.042-.18 1.438-.268s1.084-.28 1.531-.428 1.116-.401 1.486-.564 1.015-.492 1.432-.731 1.028-.626 1.357-.86.913-.696 1.296-1.026.933-.861 1.22-1.179.708-.818.935-1.11.576-.784.776-1.094c.199-.309.525-.872.723-1.25s.49-1.01.649-1.405c.158-.395.386-1.054.505-1.465s.285-1.115.367-1.564.184-1.21.225-1.691c.045-.52.059-1.217.036-1.719-.022-.464-.094-1.211-.16-1.661s-.195-1.121-.286-1.492c-.091-.372-.277-.998-.413-1.392s-.383-1.021-.55-1.393-.5-1.009-.741-1.416-.609-.978-.818-1.27-.509-.672-.667-.844-.266-.27-.24-.219z"/><path fill="#ff161f" d="M13.487.409c-.019.019-.382.105-.807.191s-1.118.271-1.539.411-1.153.444-1.625.676-1.112.589-1.421.794-.773.543-1.031.752-.666.573-.906.811-.596.613-.79.834c-.194.222-.513.628-.71.903s-.515.766-.707 1.092c-.192.325-.486.902-.654 1.281s-.413 1.013-.545 1.408-.313 1.073-.401 1.506-.195 1.213-.236 1.734a10 10 0 0 0-.001 1.869c.041.507.146 1.273.233 1.703s.284 1.157.438 1.616c.153.459.446 1.176.65 1.594s.565 1.054.802 1.415c.236.361.577.839.756 1.063s.571.656.87.961.769.745 1.044.978.776.608 1.112.833.941.576 1.344.781c.402.204 1.002.472 1.332.595s.935.308 1.344.41c.409.103 1.081.234 1.494.291.464.064 1.167.104 1.844.104.685 0 1.373-.039 1.841-.105.411-.058 1.118-.2 1.571-.316s1.075-.308 1.381-.426.738-.306.96-.417.628-.349.903-.529c.275-.179.648-.46.828-.623s.328-.317.328-.341-.218.062-.484.192a13.5 13.5 0 0 1-2.153.801 22 22 0 0 1-1.094.257c-.444.091-.972.136-1.906.162-.841.023-1.507.01-1.906-.039-.338-.041-.933-.145-1.323-.232s-1.037-.269-1.438-.407-1.094-.429-1.541-.648-1.066-.566-1.375-.771-.83-.595-1.156-.867-.807-.732-1.069-1.022-.629-.738-.818-.996-.487-.71-.664-1.004-.445-.815-.596-1.156-.361-.889-.466-1.218-.234-.78-.285-1.005a22 22 0 0 1-.23-1.372c-.116-.827-.131-1.146-.102-2.245.027-1.046.062-1.415.191-2.013.087-.402.259-1.035.383-1.406s.38-.998.57-1.394.551-1.028.804-1.406.694-.954.982-1.279c.287-.325.817-.855 1.178-1.178s.989-.81 1.398-1.084c.408-.273 1.013-.633 1.344-.798s.881-.406 1.223-.533.932-.313 1.313-.411.994-.223 1.365-.277 1.081-.1 1.578-.101 1.136.012 1.419.031c.496.033.506.031.266-.051-.137-.047-.517-.133-.844-.192s-.643-.132-.702-.163-.878-.056-1.818-.056-1.725.015-1.743.034z"/><path fill="#00b66d" d="m16.031 2.787-.673.092a11 11 0 0 0-1.094.224c-.335.087-.848.251-1.142.364s-.743.311-1 .44-.706.389-.998.579-.728.507-.969.704c-.241.198-.665.594-.943.882s-.678.756-.889 1.041-.537.791-.726 1.125-.455.888-.593 1.232-.32.906-.405 1.25-.191.85-.234 1.125-.077.95-.075 1.5c.003.737.039 1.192.137 1.73.073.402.231 1.029.351 1.394s.332.908.472 1.207.385.755.544 1.013.463.694.677.969c.213.275.621.731.907 1.014s.53.504.542.492-.128-.221-.311-.465-.468-.67-.633-.948-.411-.76-.546-1.071-.326-.837-.425-1.169-.223-.871-.277-1.198-.116-.875-.138-1.219-.009-.959.03-1.367c.038-.408.127-.999.197-1.312s.197-.781.283-1.039a12.7 12.7 0 0 1 1.097-2.282c.154-.241.456-.654.669-.918s.632-.71.932-.991.837-.706 1.194-.945.849-.535 1.092-.658.682-.315.976-.428.87-.282 1.283-.376c.614-.14.948-.177 1.844-.2.919-.024 1.217-.008 1.867.103.425.072 1.062.229 1.416.347s.937.356 1.297.529.956.515 1.323.76.936.703 1.264 1.017.819.866 1.09 1.228.659.983.861 1.381.469 1.037.593 1.421.226.739.226.789.03.11.067.133c.047.029.054-.051.024-.262-.024-.167-.097-.571-.162-.897s-.207-.861-.314-1.188-.313-.847-.457-1.156-.419-.816-.612-1.125-.537-.794-.764-1.076-.658-.741-.957-1.018-.797-.686-1.106-.907c-.309-.222-.928-.584-1.375-.805s-1.072-.487-1.389-.592-.88-.25-1.25-.322a10 10 0 0 0-1.642-.154c-.533-.012-1.053-.01-1.156.005z"/></svg>
